<mxfile host="app.diagrams.net" agent="Mozilla/5.0 (Windows NT 10.0; Win64; x64) AppleWebKit/537.36 (KHTML, like Gecko) Chrome/138.0.0.0 Safari/537.36 Edg/138.0.0.0" version="28.0.4">
  <diagram name="Page-1" id="cqFNTiU6uErdtZ2TDNFi">
    <mxGraphModel dx="778" dy="430" grid="0" gridSize="10" guides="1" tooltips="1" connect="1" arrows="1" fold="1" page="0" pageScale="1" pageWidth="827" pageHeight="1169" math="0" shadow="0">
      <root>
        <mxCell id="0" />
        <mxCell id="1" parent="0" />
        <mxCell id="MjwD6e0wirsRCNaimnq1-3" value="Serveur Web" style="shape=umlActor;verticalLabelPosition=bottom;verticalAlign=top;html=1;" parent="1" vertex="1">
          <mxGeometry x="158" y="110" width="30" height="60" as="geometry" />
        </mxCell>
        <mxCell id="MjwD6e0wirsRCNaimnq1-4" value="Administrateur&lt;div&gt;&lt;br&gt;&lt;/div&gt;" style="shape=umlActor;verticalLabelPosition=bottom;verticalAlign=top;html=1;" parent="1" vertex="1">
          <mxGeometry x="128" y="270" width="30" height="60" as="geometry" />
        </mxCell>
        <mxCell id="MjwD6e0wirsRCNaimnq1-6" value="&lt;br&gt;&lt;div&gt;&lt;br&gt;&lt;/div&gt;" style="html=1;whiteSpace=wrap;" parent="1" vertex="1">
          <mxGeometry x="232" y="72" width="407" height="368" as="geometry" />
        </mxCell>
        <mxCell id="MjwD6e0wirsRCNaimnq1-7" value="Serveur qui collecte les logs" style="html=1;whiteSpace=wrap;" parent="1" vertex="1">
          <mxGeometry x="340" y="72" width="165" height="29" as="geometry" />
        </mxCell>
        <mxCell id="MjwD6e0wirsRCNaimnq1-9" value="Envoyer les logs au collecteur" style="ellipse;whiteSpace=wrap;html=1;" parent="1" vertex="1">
          <mxGeometry x="313" y="127" width="151" height="32" as="geometry" />
        </mxCell>
        <mxCell id="MjwD6e0wirsRCNaimnq1-11" value="Analyser les logs reçus" style="ellipse;whiteSpace=wrap;html=1;" parent="1" vertex="1">
          <mxGeometry x="310" y="388" width="140" height="32" as="geometry" />
        </mxCell>
        <mxCell id="MjwD6e0wirsRCNaimnq1-12" value="Transmettre à un SIEM" style="ellipse;whiteSpace=wrap;html=1;" parent="1" vertex="1">
          <mxGeometry x="499" y="354" width="140" height="36" as="geometry" />
        </mxCell>
        <mxCell id="MjwD6e0wirsRCNaimnq1-13" value="Configurer la réception syslog" style="ellipse;whiteSpace=wrap;html=1;" parent="1" vertex="1">
          <mxGeometry x="295.5" y="303" width="169" height="35" as="geometry" />
        </mxCell>
        <mxCell id="MjwD6e0wirsRCNaimnq1-30" value="Purger les anciens logs" style="ellipse;whiteSpace=wrap;html=1;" parent="1" vertex="1">
          <mxGeometry x="502" y="246" width="140" height="43" as="geometry" />
        </mxCell>
        <mxCell id="MjwD6e0wirsRCNaimnq1-57" style="edgeStyle=none;curved=1;rounded=0;orthogonalLoop=1;jettySize=auto;html=1;exitX=0.5;exitY=0.5;exitDx=0;exitDy=0;exitPerimeter=0;fontSize=12;startSize=8;endSize=8;" parent="1" source="MjwD6e0wirsRCNaimnq1-3" target="MjwD6e0wirsRCNaimnq1-9" edge="1">
          <mxGeometry relative="1" as="geometry" />
        </mxCell>
        <mxCell id="MjwD6e0wirsRCNaimnq1-58" style="edgeStyle=none;curved=1;rounded=0;orthogonalLoop=1;jettySize=auto;html=1;exitX=0.5;exitY=0.5;exitDx=0;exitDy=0;exitPerimeter=0;fontSize=12;startSize=8;endSize=8;entryX=0;entryY=0.5;entryDx=0;entryDy=0;" parent="1" source="MjwD6e0wirsRCNaimnq1-4" target="MjwD6e0wirsRCNaimnq1-74" edge="1">
          <mxGeometry relative="1" as="geometry">
            <mxPoint x="253" y="399.5" as="targetPoint" />
          </mxGeometry>
        </mxCell>
        <mxCell id="MjwD6e0wirsRCNaimnq1-116" value="" style="edgeStyle=none;curved=1;rounded=0;orthogonalLoop=1;jettySize=auto;html=1;fontSize=12;startSize=8;endSize=8;" parent="1" source="MjwD6e0wirsRCNaimnq1-72" target="MjwD6e0wirsRCNaimnq1-30" edge="1">
          <mxGeometry relative="1" as="geometry" />
        </mxCell>
        <mxCell id="MjwD6e0wirsRCNaimnq1-72" value="" style="html=1;whiteSpace=wrap;" parent="1" vertex="1">
          <mxGeometry x="699" y="118" width="123" height="99" as="geometry" />
        </mxCell>
        <mxCell id="MjwD6e0wirsRCNaimnq1-117" value="" style="edgeStyle=none;curved=1;rounded=0;orthogonalLoop=1;jettySize=auto;html=1;fontSize=12;startSize=8;endSize=8;" parent="1" source="MjwD6e0wirsRCNaimnq1-73" target="MjwD6e0wirsRCNaimnq1-12" edge="1">
          <mxGeometry relative="1" as="geometry" />
        </mxCell>
        <mxCell id="MjwD6e0wirsRCNaimnq1-73" value="" style="html=1;whiteSpace=wrap;" parent="1" vertex="1">
          <mxGeometry x="690" y="354" width="155" height="83" as="geometry" />
        </mxCell>
        <mxCell id="MjwD6e0wirsRCNaimnq1-74" value="Sécuriser l&#39;envoi(TLS)&amp;nbsp;" style="ellipse;whiteSpace=wrap;html=1;" parent="1" vertex="1">
          <mxGeometry x="324" y="217" width="140" height="33" as="geometry" />
        </mxCell>
        <mxCell id="MjwD6e0wirsRCNaimnq1-94" value="Rsylog" style="shape=umlActor;verticalLabelPosition=bottom;verticalAlign=top;html=1;" parent="1" vertex="1">
          <mxGeometry x="754.75" y="364" width="17.5" height="35" as="geometry" />
        </mxCell>
        <mxCell id="MjwD6e0wirsRCNaimnq1-96" value="Script externe" style="shape=umlActor;verticalLabelPosition=bottom;verticalAlign=top;html=1;" parent="1" vertex="1">
          <mxGeometry x="745.5" y="134" width="30" height="47" as="geometry" />
        </mxCell>
        <mxCell id="MjwD6e0wirsRCNaimnq1-103" value="Include" style="endArrow=open;dashed=1;html=1;rounded=0;fontSize=12;curved=1;entryX=0.569;entryY=0.01;entryDx=0;entryDy=0;entryPerimeter=0;exitX=0.611;exitY=1.104;exitDx=0;exitDy=0;exitPerimeter=0;" parent="1" source="MjwD6e0wirsRCNaimnq1-9" target="MjwD6e0wirsRCNaimnq1-74" edge="1">
          <mxGeometry width="160" relative="1" as="geometry">
            <mxPoint x="341" y="167" as="sourcePoint" />
            <mxPoint x="409" y="186" as="targetPoint" />
          </mxGeometry>
        </mxCell>
        <mxCell id="MjwD6e0wirsRCNaimnq1-104" value="Extends" style="endArrow=block;endSize=16;endFill=0;html=1;rounded=0;fontSize=12;curved=1;exitX=0.564;exitY=0.98;exitDx=0;exitDy=0;exitPerimeter=0;" parent="1" source="MjwD6e0wirsRCNaimnq1-74" target="MjwD6e0wirsRCNaimnq1-13" edge="1">
          <mxGeometry width="160" relative="1" as="geometry">
            <mxPoint x="374" y="245" as="sourcePoint" />
            <mxPoint x="534" y="245" as="targetPoint" />
          </mxGeometry>
        </mxCell>
        <mxCell id="MjwD6e0wirsRCNaimnq1-105" value="Extends" style="endArrow=block;endSize=16;endFill=0;html=1;rounded=0;fontSize=12;curved=1;exitX=0.5;exitY=1;exitDx=0;exitDy=0;" parent="1" source="MjwD6e0wirsRCNaimnq1-13" target="MjwD6e0wirsRCNaimnq1-11" edge="1">
          <mxGeometry width="160" relative="1" as="geometry">
            <mxPoint x="281" y="354" as="sourcePoint" />
            <mxPoint x="441" y="354" as="targetPoint" />
          </mxGeometry>
        </mxCell>
        <mxCell id="MjwD6e0wirsRCNaimnq1-110" value="" style="endArrow=block;dashed=1;endFill=0;endSize=12;html=1;rounded=0;fontSize=12;curved=1;exitX=0.933;exitY=0.781;exitDx=0;exitDy=0;exitPerimeter=0;entryX=0;entryY=0.5;entryDx=0;entryDy=0;" parent="1" source="MjwD6e0wirsRCNaimnq1-13" target="MjwD6e0wirsRCNaimnq1-12" edge="1">
          <mxGeometry width="160" relative="1" as="geometry">
            <mxPoint x="413.00000000000006" y="330" as="sourcePoint" />
            <mxPoint x="458" y="340" as="targetPoint" />
          </mxGeometry>
        </mxCell>
        <mxCell id="MjwD6e0wirsRCNaimnq1-111" value="" style="endArrow=block;dashed=1;endFill=0;endSize=12;html=1;rounded=0;fontSize=12;curved=1;entryX=0.067;entryY=0.798;entryDx=0;entryDy=0;entryPerimeter=0;exitX=0.957;exitY=0.324;exitDx=0;exitDy=0;exitPerimeter=0;" parent="1" source="MjwD6e0wirsRCNaimnq1-13" target="MjwD6e0wirsRCNaimnq1-30" edge="1">
          <mxGeometry width="160" relative="1" as="geometry">
            <mxPoint x="374" y="245" as="sourcePoint" />
            <mxPoint x="534" y="245" as="targetPoint" />
          </mxGeometry>
        </mxCell>
        <mxCell id="MjwD6e0wirsRCNaimnq1-113" value="Extends" style="endArrow=block;endSize=16;endFill=0;html=1;rounded=0;fontSize=12;curved=1;entryX=0.562;entryY=0.037;entryDx=0;entryDy=0;entryPerimeter=0;exitX=0.5;exitY=1;exitDx=0;exitDy=0;" parent="1" source="MjwD6e0wirsRCNaimnq1-30" target="MjwD6e0wirsRCNaimnq1-12" edge="1">
          <mxGeometry width="160" relative="1" as="geometry">
            <mxPoint x="445" y="291" as="sourcePoint" />
            <mxPoint x="605" y="291" as="targetPoint" />
          </mxGeometry>
        </mxCell>
      </root>
    </mxGraphModel>
  </diagram>
</mxfile>
